<svg xmlns="http://www.w3.org/2000/svg" width="1400" height="900" viewBox="0 0 1400 900">
  <defs>
    <linearGradient id="bg" x1="0" y1="0" x2="1" y2="1">
      <stop offset="0%" stop-color="#f7f5ef"/>
      <stop offset="100%" stop-color="#eef4f7"/>
    </linearGradient>
    <filter id="shadow" x="-20%" y="-20%" width="140%" height="140%">
      <feDropShadow dx="0" dy="10" stdDeviation="18" flood-color="#9aa8b1" flood-opacity="0.18"/>
    </filter>
  </defs>

  <rect width="1400" height="900" fill="url(#bg)"/>

  <text x="90" y="92" font-family="Segoe UI, Arial, sans-serif" font-size="34" font-weight="700" fill="#15232d">
    Indexa Capital - Escenarios de AUM hasta 2030
  </text>
  <text x="90" y="128" font-family="Segoe UI, Arial, sans-serif" font-size="18" fill="#4e6573">
    Base usada: 4.961,6 M EUR de AUM a 2026-04-09. Proyecciones anuales simples desde 2026A hasta 2030E.
  </text>

  <g filter="url(#shadow)">
    <rect x="72" y="160" width="1256" height="670" rx="24" fill="#ffffff" opacity="0.92"/>
  </g>

  <g font-family="Segoe UI, Arial, sans-serif">
    <text x="90" y="195" font-size="15" font-weight="700" fill="#4e6573">AUM (B EUR)</text>
  </g>

  <g stroke="#d8e0e6" stroke-width="1">
    <line x1="140" y1="260" x2="1270" y2="260"/>
    <line x1="140" y1="360" x2="1270" y2="360"/>
    <line x1="140" y1="460" x2="1270" y2="460"/>
    <line x1="140" y1="560" x2="1270" y2="560"/>
    <line x1="140" y1="660" x2="1270" y2="660"/>
    <line x1="140" y1="760" x2="1270" y2="760"/>
  </g>

  <g stroke="#5b6b76" stroke-width="2">
    <line x1="140" y1="220" x2="140" y2="760"/>
    <line x1="140" y1="760" x2="1270" y2="760"/>
  </g>

  <g font-family="Segoe UI, Arial, sans-serif" font-size="15" fill="#5b6b76">
    <text x="98" y="766">0</text>
    <text x="90" y="666">5</text>
    <text x="82" y="566">10</text>
    <text x="82" y="466">15</text>
    <text x="82" y="366">20</text>
    <text x="82" y="266">25</text>
  </g>

  <g font-family="Segoe UI, Arial, sans-serif" font-size="16" fill="#425764">
    <text x="165" y="792">2026A</text>
    <text x="447" y="792">2027E</text>
    <text x="730" y="792">2028E</text>
    <text x="1012" y="792">2029E</text>
    <text x="1238" y="792">2030E</text>
  </g>

  <g stroke="#d8e0e6" stroke-width="1" stroke-dasharray="3 8">
    <line x1="190" y1="220" x2="190" y2="760"/>
    <line x1="472.5" y1="220" x2="472.5" y2="760"/>
    <line x1="755" y1="220" x2="755" y2="760"/>
    <line x1="1037.5" y1="220" x2="1037.5" y2="760"/>
    <line x1="1270" y1="220" x2="1270" y2="760"/>
  </g>

  <polyline fill="none" stroke="#2e7d32" stroke-width="5" points="190,660.77 472.5,621.85 755,574.22 1037.5,517.06 1270,448.47"/>
  <polyline fill="none" stroke="#1565c0" stroke-width="5" points="190,660.77 472.5,591.27 755,497.44 1037.5,370.78 1270,204.00"/>
  <polyline fill="none" stroke="#ef6c00" stroke-width="5" points="190,660.77 472.5,571.77 755,437.93 1037.5,237.17 1270,40.00"/>

  <g fill="#2e7d32">
    <circle cx="190" cy="660.77" r="6"/>
    <circle cx="472.5" cy="621.85" r="6"/>
    <circle cx="755" cy="574.22" r="6"/>
    <circle cx="1037.5" cy="517.06" r="6"/>
    <circle cx="1270" cy="448.47" r="6"/>
  </g>
  <g fill="#1565c0">
    <circle cx="190" cy="660.77" r="6"/>
    <circle cx="472.5" cy="591.27" r="6"/>
    <circle cx="755" cy="497.44" r="6"/>
    <circle cx="1037.5" cy="370.78" r="6"/>
    <circle cx="1270" cy="204.00" r="6"/>
  </g>
  <g fill="#ef6c00">
    <circle cx="190" cy="660.77" r="6"/>
    <circle cx="472.5" cy="571.77" r="6"/>
    <circle cx="755" cy="437.93" r="6"/>
    <circle cx="1037.5" cy="237.17" r="6"/>
    <circle cx="1270" cy="40.00" r="6"/>
  </g>

  <g font-family="Segoe UI, Arial, sans-serif" font-size="14" font-weight="700">
    <text x="456" y="608" fill="#2e7d32">5,95</text>
    <text x="739" y="561" fill="#2e7d32">7,14</text>
    <text x="1021" y="504" fill="#2e7d32">8,57</text>
    <text x="1230" y="435" fill="#2e7d32">10,29</text>

    <text x="456" y="578" fill="#1565c0">6,70</text>
    <text x="739" y="484" fill="#1565c0">9,04</text>
    <text x="1011" y="357" fill="#1565c0">12,21</text>
    <text x="1222" y="191" fill="#1565c0">16,48</text>

    <text x="456" y="558" fill="#ef6c00">7,44</text>
    <text x="735" y="424" fill="#ef6c00">11,16</text>
    <text x="1011" y="224" fill="#ef6c00">16,75</text>
    <text x="1222" y="58" fill="#ef6c00">25,12</text>
  </g>

  <g font-family="Segoe UI, Arial, sans-serif">
    <rect x="955" y="94" width="330" height="92" rx="18" fill="#ffffff" stroke="#d5dde3"/>
    <line x1="980" y1="122" x2="1038" y2="122" stroke="#2e7d32" stroke-width="5"/>
    <text x="1055" y="128" font-size="18" font-weight="700" fill="#233744">Pesimista: +20% anual</text>
    <line x1="980" y1="148" x2="1038" y2="148" stroke="#1565c0" stroke-width="5"/>
    <text x="1055" y="154" font-size="18" font-weight="700" fill="#233744">Neutral: +35% anual</text>
    <line x1="980" y1="174" x2="1038" y2="174" stroke="#ef6c00" stroke-width="5"/>
    <text x="1055" y="180" font-size="18" font-weight="700" fill="#233744">Optimista: +50% anual</text>
  </g>

  <g font-family="Segoe UI, Arial, sans-serif" font-size="16" fill="#425764">
    <text x="185" y="642">4,96</text>
    <text x="90" y="854">
      Formula: AUM_t = AUM_base x (1 + g)^n, con base de 4,9616 B EUR a 2026-04-09 y n = anos proyectados.
    </text>
  </g>
</svg>
